# xmcd
#
# Track frame offsets: 
#        150
#        20860
#        38331
#        52954
#        75335
#        90612
#        105641
#        128453
#        142400
#        172750
#        195470
#        214161
#
# Disc length: 3930 seconds
#
# Revision: 0
# Processed by: cddbd v1.5.2PL0 Copyright (c) Steve Scherf et al.
# Submitted via: ExactAudioCopy v0.95a5
#
DISCID=930f580c
DTITLE=Steppin' Out - No Shoes, No Shirt, No Service
DYEAR=1900
DGENRE=Blues
TTITLE0=Keep It To Yourself
TTITLE1=Walkin' By Myself
TTITLE2=I Sometimes Love
TTITLE3=Dock Of The Bay
TTITLE4=The Doctor
TTITLE5=Sloppy Drunk
TTITLE6=Anna
TTITLE7=Hoodoo Flip
TTITLE8=Tough Times
TTITLE9=Lowdown And Dirty
TTITLE10=Til The Day I Die
TTITLE11=Need Your Love So Bad
EXTD=
EXTT0=
EXTT1=
EXTT2=
EXTT3=
EXTT4=
EXTT5=
EXTT6=
EXTT7=
EXTT8=
EXTT9=
EXTT10=
EXTT11=
PLAYORDER=
